name rise45.9887peak57.8056fall74.9286.mot
datacolumns 19
datarows 12
range 21.91991900000000 21.93825600000000
endheader
time	ground_force1_vx	ground_force1_vy	ground_force1_vz	ground_force1_px	ground_force1_py	ground_force1_pz	ground_force2_vx	ground_force2_vy	ground_force2_vz	ground_force2_px	ground_force2_py	ground_force2_pz	ground_torque1_x	ground_torque1_y	ground_torque1_z	ground_torque2_x	ground_torque2_y	ground_torque2_z	
21.91991900000000	60.20188300000000	790.12724300000002	59.47726400000000	0.27935500000000	0.00000000000000	0.12185200000000	0.00000000000000	0.00000000000000	0.00000000000000	0.00000000000000	0.00000000000000	0.00000000000000	0.00000000000000	18.12145700000000	0.00000000000000	0.00000000000000	0.00000000000000	0.00000000000000	
21.92158800000000	59.45967700000000	791.15524400000004	59.44230300000000	0.27839900000000	0.00000000000000	0.12181400000000	0.00000000000000	0.00000000000000	0.00000000000000	0.00000000000000	0.00000000000000	0.00000000000000	0.00000000000000	18.11783800000000	0.00000000000000	0.00000000000000	0.00000000000000	0.00000000000000	
21.92325400000000	58.72458300000000	792.06197699999996	59.40164600000000	0.27747100000000	0.00000000000000	0.12177700000000	0.00000000000000	0.00000000000000	0.00000000000000	0.00000000000000	0.00000000000000	0.00000000000000	0.00000000000000	18.11195100000000	0.00000000000000	0.00000000000000	0.00000000000000	0.00000000000000	
21.92492100000000	57.99705100000000	792.84844399999997	59.35559800000000	0.27657000000000	0.00000000000000	0.12173900000000	0.00000000000000	0.00000000000000	0.00000000000000	0.00000000000000	0.00000000000000	0.00000000000000	0.00000000000000	18.10392800000000	0.00000000000000	0.00000000000000	0.00000000000000	0.00000000000000	
21.92658800000000	57.27743800000000	793.51572399999998	59.30441200000000	0.27569400000000	0.00000000000000	0.12170300000000	0.00000000000000	0.00000000000000	0.00000000000000	0.00000000000000	0.00000000000000	0.00000000000000	0.00000000000000	18.09387400000000	0.00000000000000	0.00000000000000	0.00000000000000	0.00000000000000	
21.92825300000000	56.56601100000000	794.06497500000000	59.24828600000000	0.27484100000000	0.00000000000000	0.12166600000000	0.00000000000000	0.00000000000000	0.00000000000000	0.00000000000000	0.00000000000000	0.00000000000000	0.00000000000000	18.08187700000000	0.00000000000000	0.00000000000000	0.00000000000000	0.00000000000000	
21.92991900000000	55.86295200000000	794.49744499999997	59.18737600000000	0.27401000000000	0.00000000000000	0.12163000000000	0.00000000000000	0.00000000000000	0.00000000000000	0.00000000000000	0.00000000000000	0.00000000000000	0.00000000000000	18.06800000000000	0.00000000000000	0.00000000000000	0.00000000000000	0.00000000000000	
21.93158500000000	55.16836100000000	794.81447700000001	59.12178700000000	0.27319900000000	0.00000000000000	0.12159500000000	0.00000000000000	0.00000000000000	0.00000000000000	0.00000000000000	0.00000000000000	0.00000000000000	0.00000000000000	18.05229100000000	0.00000000000000	0.00000000000000	0.00000000000000	0.00000000000000	
21.93325000000000	54.48226600000000	795.01751600000000	59.05158600000000	0.27240600000000	0.00000000000000	0.12156000000000	0.00000000000000	0.00000000000000	0.00000000000000	0.00000000000000	0.00000000000000	0.00000000000000	0.00000000000000	18.03477900000000	0.00000000000000	0.00000000000000	0.00000000000000	0.00000000000000	
21.93491400000000	53.80462100000000	795.10811400000000	58.97680100000000	0.27163000000000	0.00000000000000	0.12152700000000	0.00000000000000	0.00000000000000	0.00000000000000	0.00000000000000	0.00000000000000	0.00000000000000	0.00000000000000	18.01547700000000	0.00000000000000	0.00000000000000	0.00000000000000	0.00000000000000	
21.93658400000000	53.13531900000000	795.08793800000001	58.89742200000000	0.27086700000000	0.00000000000000	0.12149300000000	0.00000000000000	0.00000000000000	0.00000000000000	0.00000000000000	0.00000000000000	0.00000000000000	0.00000000000000	17.99438300000000	0.00000000000000	0.00000000000000	0.00000000000000	0.00000000000000	
21.93825600000000	52.47419100000000	794.95876899999996	58.81341000000000	0.27011700000000	0.00000000000000	0.12146100000000	0.00000000000000	0.00000000000000	0.00000000000000	0.00000000000000	0.00000000000000	0.00000000000000	0.00000000000000	17.97148400000000	0.00000000000000	0.00000000000000	0.00000000000000	0.00000000000000	
